<svg width="1200" height="700" viewBox="0 0 1200 700" fill="none" xmlns="http://www.w3.org/2000/svg">
<rect width="1200" height="700" rx="24" fill="#0F172A"/>
<rect x="40" y="40" width="1120" height="70" rx="14" fill="#1E293B"/>
<circle cx="85" cy="75" r="12" fill="#38BDF8"/>
<circle cx="125" cy="75" r="12" fill="#22D3EE"/>
<rect x="180" y="62" width="240" height="24" rx="12" fill="#334155"/>
<rect x="40" y="140" width="550" height="520" rx="16" fill="#111827"/>
<rect x="620" y="140" width="540" height="250" rx="16" fill="#111827"/>
<rect x="620" y="410" width="540" height="250" rx="16" fill="#111827"/>
<rect x="80" y="190" width="180" height="40" rx="10" fill="#38BDF8"/>
<rect x="80" y="250" width="470" height="18" rx="9" fill="#334155"/>
<rect x="80" y="280" width="420" height="18" rx="9" fill="#334155"/>
<rect x="80" y="330" width="210" height="210" rx="14" fill="#1E293B"/>
<rect x="310" y="330" width="210" height="210" rx="14" fill="#1E293B"/>
<rect x="660" y="190" width="220" height="24" rx="12" fill="#38BDF8"/>
<rect x="660" y="230" width="380" height="16" rx="8" fill="#334155"/>
<rect x="660" y="460" width="220" height="24" rx="12" fill="#38BDF8"/>
<rect x="660" y="500" width="420" height="16" rx="8" fill="#334155"/>
<text x="60" y="635" fill="#94A3B8" font-family="Arial, sans-serif" font-size="34">Booking Appointment App UI Preview</text>
</svg>
